# xmcd
#
# Track frame offsets:
#	150
#	14525
#	28025
#	43662
#	58687
#	72112
#	86525
#	101400
#	131350
#	146312
#	162500
#	180200
#
# Disc length: 2608 seconds
#
# Revision: 0
# Processed by: cddbd v1.5.1PL0 Copyright (c) Steve Scherf et al.
# Submitted via: dBpowerAMP V4.0
#
DISCID=950a2e0c
DTITLE=Wisex - Mjölnarens Iréne
DYEAR=1999
DGENRE=Oldies
TTITLE0=Va, Va De Ja Sa
TTITLE1=Det Bästa Som Har Hänt
TTITLE2=Mjölnarens Iréne
TTITLE3=Det Handlar Om Dig
TTITLE4=Mina Drömars Prins
TTITLE5=Ensam I Natten
TTITLE6=Jag Är Knäckt
TTITLE7=Medley
TTITLE8=Isabella
TTITLE9=Som En Symfoni
TTITLE10=Mellan Hägg and Syrén
TTITLE11=Från Mig Till Dig
EXTD=
EXTT0=
EXTT1=
EXTT2=
EXTT3=
EXTT4=
EXTT5=
EXTT6=
EXTT7=
EXTT8=
EXTT9=
EXTT10=
EXTT11=
PLAYORDER=
